<?xml version="1.0" encoding="utf-8"?>
<!-- Generator: Adobe Illustrator 16.0.0, SVG Export Plug-In . SVG Version: 6.00 Build 0)  -->
<!DOCTYPE svg PUBLIC "-//W3C//DTD SVG 1.1//EN" "http://www.w3.org/Graphics/SVG/1.1/DTD/svg11.dtd">
<svg version="1.1" id="Layer_1" xmlns="http://www.w3.org/2000/svg" xmlns:xlink="http://www.w3.org/1999/xlink" x="0px" y="0px"
	 width="1024px" height="1024px" viewBox="0 0 1024 1024" enable-background="new 0 0 1024 1024" xml:space="preserve">
<g>
	<path fill="#FFA401" d="M774.024,353.417c-144.554-144.559-379.754-144.555-524.309,0l-88.085-88.092
		c47.293-47.297,102.437-83.927,163.889-108.872c59.36-24.092,122.063-36.308,186.343-36.308
		c64.297,0,126.984,12.216,186.343,36.308c61.46,24.945,116.61,61.575,163.911,108.872L774.024,353.417z"/>
	<path fill="#FFA401" d="M402.105,501.969L314.02,413.88c52.882-52.881,123.143-82.006,197.843-82.006
		c74.714,0,144.976,29.125,197.858,82.006l-88.101,88.089c-29.339-29.35-68.321-45.514-109.757-45.514
		C470.442,456.455,431.459,472.619,402.105,501.969z"/>
	<path fill="#013A71" d="M995.226,787h-104.49C866.241,787,845,757.542,845,733.071v-53.41C845,655.19,866.241,646,890.735,646
		h104.253c24.479,0,31.899-20.982,16.482-40.003c0,0-69.11-89.229-149.522-89.229C785.67,516.768,719.848,568,689.098,622h-28.433
		c-9.185,72-72.385,131.444-148.802,131.444c-76.41,0-139.617-59.444-148.771-131.444h-27.438
		c-30.986-63-96.487-107.82-172.291-107.82c-80.618,0-149.836,91.486-149.836,91.486C-1.836,624.729,5.616,646,30.086,646H134.6
		c24.47,0,43.4,8.826,43.4,33.304v53.399C178,757.182,159.07,787,134.6,787H30.347c-24.494,0-31.899,10.661-16.498,29.682
		c0,0,69.119,86.389,149.515,86.389c76.286,0,142.124-53.07,172.851-108.07h86.92h179.059h87.473
		c30.986,55,96.479,105.494,172.282,105.494c80.634,0,149.845-82.325,149.845-82.325C1027.155,799.111,1019.704,787,995.226,787z"/>
	<path fill="#FFA401" d="M595.977,606.18c0,46.449-37.672,84.106-84.114,84.106c-46.449,0-84.091-37.657-84.091-84.106
		c0-46.446,37.642-84.103,84.091-84.103C558.305,522.077,595.977,559.733,595.977,606.18z"/>
</g>
</svg>
