<?xml version="1.0" encoding="utf-8"?>
<!-- Generator: Adobe Illustrator 16.0.0, SVG Export Plug-In . SVG Version: 6.00 Build 0)  -->
<!DOCTYPE svg PUBLIC "-//W3C//DTD SVG 1.1//EN" "http://www.w3.org/Graphics/SVG/1.1/DTD/svg11.dtd">
<svg version="1.1" id="Layer_1" xmlns="http://www.w3.org/2000/svg" xmlns:xlink="http://www.w3.org/1999/xlink" x="0px" y="0px"
	 width="1024px" height="1024px" viewBox="0 0 1024 1024" enable-background="new 0 0 1024 1024" xml:space="preserve">
<g>
	<path fill="#FFA401" d="M300.966,451.563c-56.052-56.053-147.253-56.052-203.306,0l-34.156-34.159
		c18.339-18.339,39.723-32.544,63.555-42.217c23.016-9.341,47.327-14.078,72.254-14.078c24.929,0,49.238,4.737,72.253,14.078
		c23.833,9.672,45.218,23.877,63.559,42.217L300.966,451.563z"/>
	<path fill="#FFA401" d="M156.753,509.165l-34.158-34.156c20.504-20.507,47.75-31.8,76.718-31.8c28.969,0,56.214,11.293,76.718,31.8
		l-34.158,34.156c-11.38-11.381-26.495-17.648-42.56-17.648C183.25,491.517,168.133,497.784,156.753,509.165z"/>
	<path fill="#013A71" d="M386.74,618H346.22c-9.494,0-17.22-9.734-17.22-19.225v-20.708c0-9.492,7.726-13.067,17.22-13.067h40.428
		c9.493,0,12.37-8.13,6.394-15.506c0,0-26.802-34.449-57.981-34.449c-29.574,0-55.1,19.955-67.024,40.955h-11.026
		c-3.556,28-28.065,50.969-57.695,50.969S145.173,584,141.622,556h-10.637c-12.014-23-37.414-41.955-66.806-41.955
		c-31.263,0-58.103,35.396-58.103,35.396C0.119,556.832,3.01,565,12.499,565h40.523C62.513,565,71,568.437,71,577.928v20.707
		C71,608.125,62.513,618,53.022,618H12.595c-9.494,0-12.369,4.979-6.392,12.354c0,0,26.801,34.025,57.976,34.025
		c29.578,0,55.105-18.379,67.024-41.379h33.703h69.429h33.918c12.017,23,37.414,40.803,66.805,40.803
		c31.266,0,58.106-32.821,58.106-32.821C399.12,623.594,396.233,618,386.74,618z"/>
	<path fill="#FFA401" d="M231.926,549.573c0,18.014-14.603,32.614-32.612,32.614c-18.012,0-32.612-14.601-32.612-32.614
		c0-18.009,14.6-32.612,32.612-32.612C217.323,516.961,231.926,531.564,231.926,549.573z"/>
</g>
<g>
	<path fill="#013A71" d="M436.565,458.518c0-2.902,1.965-5.5,5.896-7.799c3.925-2.295,8.066-3.444,12.419-3.444
		c5.077,0,8.097,1.754,9.066,5.258l27.563,93.021l14.324-61.289c0.48-2.296,2.053-4.109,4.713-5.439
		c2.659-1.33,5.623-1.995,8.888-1.995c3.262,0,6.224,0.665,8.883,1.995c2.659,1.331,4.231,3.144,4.715,5.439l14.324,61.289
		l27.563-93.021c0.968-3.504,3.988-5.258,9.067-5.258c4.351,0,8.492,1.149,12.419,3.444c3.928,2.299,5.894,4.897,5.894,7.799
		c0,0.847-0.123,1.631-0.362,2.356L565.854,571.48c-1.089,3.025-3.354,5.352-6.8,6.984c-3.444,1.631-7.407,2.445-11.877,2.445
		c-4.475,0-8.465-0.814-11.968-2.445c-3.508-1.633-5.623-3.959-6.348-6.984l-9.427-42.973l-9.43,42.973
		c-0.727,3.025-2.842,5.352-6.347,6.984c-3.508,1.631-7.497,2.445-11.969,2.445c-4.473,0-8.461-0.814-11.967-2.445
		c-3.507-1.633-5.742-3.959-6.708-6.984l-36.084-110.607C436.686,460.148,436.565,459.364,436.565,458.518z"/>
	<path fill="#013A71" d="M614.448,473.125c-2.901-2.471-4.354-5.375-4.354-8.709c0-3.334,1.453-6.211,4.354-8.625
		c2.899-2.414,6.406-3.621,10.517-3.621c3.988,0,7.434,1.207,10.336,3.621c2.901,2.414,4.351,5.291,4.351,8.625
		c0,3.335-1.449,6.239-4.351,8.709c-2.902,2.469-6.348,3.706-10.336,3.706C620.854,476.83,617.348,475.594,614.448,473.125z
		 M611.002,571.121v-69.087c0-2.538,1.299-4.591,3.898-6.166c2.599-1.568,5.954-2.356,10.064-2.356
		c3.988,0,7.344,0.789,10.063,2.356c2.72,1.575,4.078,3.628,4.078,6.166v69.087c0,2.177-1.39,4.17-4.17,5.983
		s-6.105,2.72-9.972,2.72c-3.988,0-7.315-0.877-9.973-2.628C612.332,575.444,611.002,573.42,611.002,571.121z"/>
	<path fill="#013A71" d="M655.425,571.234v-91.393c0-10.477,3.112-19.22,9.339-26.228c6.225-7.006,13.749-10.511,22.576-10.511
		h13.055c3.384,0,5.984,1.236,7.797,3.7c1.813,2.467,2.722,5.345,2.722,8.632c0,3.417-0.908,6.323-2.722,8.727
		c-1.813,2.401-4.413,3.603-7.797,3.603h-6.892c-6.649,0-9.97,3.263-9.97,9.791v15.956h20.488c2.177,0,3.866,1.089,5.076,3.265
		c1.206,2.175,1.815,4.714,1.815,7.615c0,3.034-0.609,5.607-1.815,7.715c-1.21,2.11-2.899,3.165-5.076,3.165h-20.488v56.262
		c0,2.352-1.424,4.323-4.263,5.912c-2.841,1.585-6.197,2.379-10.062,2.379c-3.99,0-7.288-0.789-9.887-2.374
		C656.723,575.865,655.425,573.795,655.425,571.234z"/>
	<path fill="#FFA401" d="M718.523,543.561v-41.344c0-2.176,1.389-4.17,4.173-5.984c2.778-1.814,6.101-2.721,9.972-2.721
		c3.628,0,6.86,0.907,9.702,2.715c2.837,1.808,4.26,3.798,4.26,5.963v41.228c0,3.494,1.33,6.629,3.991,9.4
		c2.656,2.772,5.74,4.158,9.245,4.158s6.56-1.386,9.159-4.158c2.599-2.771,3.896-5.906,3.896-9.4V502.01
		c0-2.289,1.419-4.275,4.263-5.964c2.839-1.688,6.134-2.534,9.882-2.534c3.988,0,7.314,0.849,9.974,2.539
		c2.657,1.694,3.988,3.69,3.988,5.984v41.526c0,10.152-4.08,19.039-12.239,26.654c-8.158,7.614-17.802,11.424-28.923,11.424
		c-11.243,0-20.942-3.81-29.102-11.424C722.604,562.6,718.523,553.713,718.523,543.561z"/>
	<path fill="#FFA401" d="M819.89,473.125c-2.906-2.471-4.354-5.375-4.354-8.709c0-3.334,1.448-6.211,4.354-8.625
		c2.897-2.414,6.402-3.621,10.512-3.621c3.988,0,7.435,1.207,10.337,3.621c2.901,2.414,4.353,5.291,4.353,8.625
		c0,3.335-1.451,6.239-4.353,8.709c-2.902,2.469-6.349,3.706-10.337,3.706C826.292,476.83,822.787,475.594,819.89,473.125z
		 M816.439,571.121v-69.087c0-2.538,1.298-4.591,3.898-6.166c2.6-1.568,5.954-2.356,10.063-2.356c3.988,0,7.347,0.789,10.064,2.356
		c2.722,1.575,4.08,3.628,4.08,6.166v69.087c0,2.177-1.392,4.17-4.17,5.983c-2.78,1.813-6.105,2.72-9.975,2.72
		c-3.988,0-7.313-0.877-9.972-2.628C817.769,575.444,816.439,573.42,816.439,571.121z"/>
	<path fill="#FFA401" d="M857.598,543.196v-12.331c0-11.481,3.419-20.762,10.244-27.835c6.829-7.07,17.015-10.606,30.556-10.606
		c8.703,0,15.987,1.481,21.85,4.443c5.864,2.963,8.793,6.5,8.793,10.608c0,3.021-1.056,6.076-3.168,9.158
		c-2.12,3.082-4.686,4.623-7.708,4.623c-0.968,0-3.174-0.695-6.62-2.086c-3.446-1.388-7.043-2.085-10.786-2.085
		c-10.037,0-15.052,4.612-15.052,13.839v12.216c0,9.225,5.077,13.837,15.231,13.837c3.626,0,7.098-0.785,10.428-2.357
		c3.321-1.57,5.588-2.357,6.799-2.357c3.502,0,6.375,1.451,8.612,4.354c2.236,2.897,3.356,5.921,3.356,9.065
		c0,4.233-3.088,7.947-9.252,11.15c-6.163,3.201-13.537,4.807-22.119,4.807c-13.784,0-24.091-3.506-30.92-10.518
		C861.017,564.111,857.598,554.801,857.598,543.196z"/>
	<path fill="#FFA401" d="M941.005,571.121V452.714c0-2.539,1.298-4.592,3.9-6.165c2.596-1.57,5.894-2.357,9.884-2.357
		c4.105,0,7.524,0.787,10.244,2.357c2.718,1.572,4.078,3.626,4.078,6.165v71.079l30.098-29.192c1.457-1.451,3.269-2.176,5.441-2.176
		c3.023,0,6.044,1.481,9.067,4.443c3.019,2.963,4.532,5.956,4.532,8.976c0,1.814-0.722,3.445-2.173,4.895l-19.222,17.77
		l24.841,34.816c0.968,1.57,1.451,3.023,1.451,4.351c0,3.145-1.815,6.256-5.439,9.34c-3.626,3.081-7.193,4.624-10.698,4.624
		c-2.901,0-5.14-1.151-6.708-3.445l-21.942-32.459l-9.248,8.522v16.864c0,2.177-1.419,4.17-4.263,5.983
		c-2.841,1.813-6.196,2.72-10.06,2.72c-3.873,0-7.135-0.877-9.79-2.628C942.334,575.444,941.005,573.42,941.005,571.121z"/>
</g>
</svg>
