<?xml version="1.0" encoding="utf-8"?>
<!-- Generator: Adobe Illustrator 16.0.0, SVG Export Plug-In . SVG Version: 6.00 Build 0)  -->
<!DOCTYPE svg PUBLIC "-//W3C//DTD SVG 1.1//EN" "http://www.w3.org/Graphics/SVG/1.1/DTD/svg11.dtd">
<svg version="1.1" id="Layer_1" xmlns="http://www.w3.org/2000/svg" xmlns:xlink="http://www.w3.org/1999/xlink" x="0px" y="0px"
	 width="1024px" height="1024px" viewBox="0 0 1024 1024" enable-background="new 0 0 1024 1024" xml:space="preserve">
<g>
	<path fill="#FFA401" d="M749.997,214.965c-131.265-131.269-344.843-131.266-476.108,0l-79.987-79.994
		c42.945-42.949,93.02-76.211,148.822-98.863c53.903-21.877,110.841-32.97,169.212-32.97c58.386,0,115.31,11.093,169.212,32.97
		c55.811,22.652,105.891,55.914,148.843,98.863L749.997,214.965z"/>
	<path fill="#FFA401" d="M412.269,349.86l-79.987-79.991c48.021-48.02,111.822-74.467,179.655-74.467
		c67.846,0,131.648,26.447,179.668,74.467l-80.001,79.991c-26.642-26.652-62.041-41.33-99.667-41.33
		C474.323,308.53,438.924,323.208,412.269,349.86z"/>
	<path fill="#013A71" d="M950.863,609h-94.885C833.736,609,814,581.938,814,559.717v-48.5C814,488.996,833.736,481,855.979,481
		h94.669c22.229,0,28.967-19.229,14.967-36.5c0,0-62.757-81.042-135.776-81.042c-69.266,0-129.037,46.543-156.96,95.543h-25.819
		c-8.34,65-65.73,119.361-135.123,119.361C442.551,578.361,385.154,524,376.842,459h-24.915
		c-28.138-57-87.617-97.979-156.452-97.979c-73.207,0-136.062,83.215-136.062,83.215C45.462,461.545,52.229,481,74.45,481h94.906
		c22.221,0,39.645,7.665,39.645,29.893v48.49C209,581.611,191.576,609,169.355,609H74.687c-22.242,0-28.967,9.525-14.981,26.797
		c0,0,62.765,78.394,135.77,78.394c69.273,0,129.059-48.19,156.96-98.19h78.929h162.599h79.431
		c28.138,50,87.61,95.772,156.444,95.772c73.221,0,136.069-74.613,136.069-74.613C979.857,619.854,973.091,609,950.863,609z"/>
	<path fill="#FFA401" d="M588.317,444.491c0,42.179-34.209,76.374-76.381,76.374c-42.179,0-76.36-34.195-76.36-76.374
		c0-42.176,34.181-76.371,76.36-76.371C554.108,368.12,588.317,402.315,588.317,444.491z"/>
</g>
<g>
	<path fill="#013A71" d="M19.726,814.813c0-4.873,3.3-9.244,9.906-13.101s13.561-5.792,20.871-5.792
		c8.542,0,13.61,2.944,15.246,8.841l46.314,156.341l24.094-103.016c0.793-3.857,3.446-6.906,7.908-9.134
		c4.462-2.241,9.454-3.362,14.939-3.362c5.485,0,10.463,1.121,14.939,3.362c4.455,2.228,7.094,5.276,7.908,9.134l24.086,103.016
		l46.322-156.341c1.615-5.896,6.704-8.841,15.231-8.841c7.323,0,14.278,1.936,20.877,5.792c6.606,3.856,9.906,8.228,9.906,13.101
		c0,1.421-0.202,2.743-0.613,3.969l-60.648,185.898c-1.824,5.075-5.632,8.987-11.41,11.724c-5.806,2.75-12.461,4.121-19.965,4.121
		c-7.532,0-14.236-1.371-20.119-4.121c-5.903-2.736-9.454-6.648-10.665-11.724l-15.851-72.231l-15.845,72.231
		c-1.225,5.075-4.789,8.987-10.665,11.724c-5.903,2.75-12.6,4.121-20.132,4.121c-7.498,0-14.208-1.371-20.104-4.121
		c-5.889-2.736-9.656-6.648-11.264-11.724L20.345,818.781C19.928,817.556,19.726,816.233,19.726,814.813z"/>
	<path fill="#013A71" d="M318.7,839.359c-4.88-4.149-7.324-9.022-7.324-14.633c0-5.604,2.444-10.442,7.324-14.494
		c4.873-4.059,10.762-6.084,17.675-6.084c6.704,0,12.481,2.025,17.369,6.084c4.88,4.052,7.317,8.89,7.317,14.494
		c0,5.61-2.437,10.483-7.317,14.633c-4.887,4.156-10.665,6.23-17.369,6.23C329.462,845.59,323.573,843.516,318.7,839.359z
		 M312.901,1004.067V887.95c0-4.261,2.179-7.714,6.558-10.358c4.365-2.632,10.003-3.954,16.917-3.954
		c6.704,0,12.336,1.322,16.909,3.954c4.567,2.645,6.864,6.098,6.864,10.358v116.117c0,3.655-2.346,7.003-7.024,10.053
		c-4.678,3.056-10.247,4.58-16.749,4.58c-6.704,0-12.301-1.476-16.777-4.427C315.136,1011.335,312.901,1007.924,312.901,1004.067z"
		/>
	<path fill="#013A71" d="M387.569,1004.256V850.65c0-17.599,5.229-32.308,15.685-44.072c10.47-11.786,23.112-17.669,37.947-17.669
		h21.942c5.688,0,10.066,2.082,13.102,6.217c3.056,4.149,4.574,8.98,4.574,14.508c0,5.743-1.518,10.63-4.574,14.668
		c-3.035,4.03-7.414,6.05-13.102,6.05H451.56c-11.173,0-16.764,5.492-16.764,16.463v26.823h34.452c3.648,0,6.488,1.823,8.521,5.472
		c2.019,3.662,3.049,7.929,3.049,12.809c0,5.096-1.03,9.426-3.049,12.963c-2.033,3.55-4.873,5.325-8.521,5.325h-34.452v94.558
		c0,3.954-2.388,7.268-7.156,9.934c-4.769,2.667-10.407,4.003-16.916,4.003c-6.704,0-12.246-1.336-16.61-3.996
		C389.749,1012.045,387.569,1008.564,387.569,1004.256z"/>
	<path fill="#FFA401" d="M493.613,957.746v-69.489c0-3.655,2.339-7.004,7.011-10.053c4.671-3.049,10.261-4.566,16.756-4.566
		c6.099,0,11.542,1.518,16.311,4.553c4.769,3.042,7.163,6.384,7.163,10.024v69.294c0,5.869,2.229,11.139,6.697,15.796
		c4.47,4.664,9.648,6.989,15.545,6.989c5.89,0,11.027-2.325,15.398-6.989c4.358-4.657,6.551-9.927,6.551-15.796v-69.601
		c0-3.843,2.374-7.177,7.164-10.024c4.762-2.833,10.296-4.246,16.603-4.246c6.711,0,12.287,1.42,16.764,4.261
		c4.469,2.84,6.704,6.202,6.704,10.052v69.796c0,17.063-6.864,31.995-20.571,44.797c-13.714,12.802-29.913,19.199-48.612,19.199
		c-18.887,0-35.204-6.397-48.904-19.199C500.471,989.741,493.613,974.809,493.613,957.746z"/>
	<path fill="#FFA401" d="M663.975,839.359c-4.88-4.149-7.316-9.022-7.316-14.633c0-5.604,2.437-10.442,7.316-14.494
		c4.88-4.059,10.762-6.084,17.675-6.084c6.704,0,12.496,2.025,17.369,6.084c4.873,4.052,7.316,8.89,7.316,14.494
		c0,5.61-2.443,10.483-7.316,14.633c-4.873,4.156-10.665,6.23-17.369,6.23C674.736,845.59,668.854,843.516,663.975,839.359z
		 M658.169,1004.067V887.95c0-4.261,2.192-7.714,6.571-10.358c4.351-2.632,9.996-3.954,16.909-3.954
		c6.704,0,12.35,1.322,16.917,3.954c4.56,2.645,6.856,6.098,6.856,10.358v116.117c0,3.655-2.346,7.003-7.01,10.053
		c-4.671,3.056-10.269,4.58-16.764,4.58c-6.704,0-12.294-1.476-16.763-4.427C660.41,1011.335,658.169,1007.924,658.169,1004.067z"/>
	<path fill="#FFA401" d="M727.358,957.133v-20.717c0-19.305,5.743-34.898,17.216-46.788c11.479-11.884,28.598-17.828,51.354-17.828
		c14.619,0,26.864,2.492,36.722,7.462c9.851,4.985,14.772,10.93,14.772,17.836c0,5.082-1.769,10.213-5.318,15.392
		c-3.571,5.173-7.88,7.776-12.948,7.776c-1.637,0-5.34-1.17-11.139-3.509c-5.792-2.339-11.834-3.509-18.135-3.509
		c-16.86,0-25.291,7.755-25.291,23.252v20.543c0,15.503,8.535,23.251,25.598,23.251c6.098,0,11.939-1.322,17.529-3.961
		c5.576-2.639,9.397-3.961,11.438-3.961c5.875,0,10.707,2.437,14.466,7.316c3.767,4.873,5.646,9.955,5.646,15.231
		c0,7.115-5.193,13.366-15.559,18.747c-10.352,5.382-22.743,8.075-37.168,8.075c-23.167,0-40.487-5.896-51.967-17.675
		C733.102,992.289,727.358,976.64,727.358,957.133z"/>
	<path fill="#FFA401" d="M867.535,1004.067v-199c0-4.274,2.179-7.728,6.557-10.373c4.358-2.632,9.906-3.954,16.61-3.954
		c6.906,0,12.656,1.322,17.209,3.954c4.573,2.646,6.864,6.099,6.864,10.373v119.458l50.589-49.064
		c2.443-2.443,5.485-3.661,9.141-3.661c5.089,0,10.156,2.492,15.238,7.462c5.082,4.985,7.616,10.018,7.616,15.093
		c0,3.05-1.212,5.792-3.648,8.229l-32.308,29.865l41.755,58.518c1.614,2.632,2.437,5.082,2.437,7.31
		c0,5.291-3.05,10.512-9.141,15.691c-6.099,5.187-12.085,7.775-17.981,7.775c-4.88,0-8.64-1.935-11.271-5.792l-36.89-54.55
		l-15.537,14.32v28.347c0,3.655-2.388,7.003-7.171,10.053c-4.761,3.056-10.4,4.58-16.902,4.58c-6.509,0-11.994-1.476-16.45-4.427
		C869.776,1011.335,867.535,1007.924,867.535,1004.067z"/>
</g>
</svg>
